<?xml version="1.0" ?><svg style="enable-background:new 0 0 512 512;" version="1.1" viewBox="0 0 512 512" xml:space="preserve" xmlns="http://www.w3.org/2000/svg" xmlns:xlink="http://www.w3.org/1999/xlink"><g id="_x32_2_x5F_Rain"><g id="XMLID_1813_"><g id="XMLID_1834_"><g id="XMLID_1039_"><linearGradient gradientTransform="matrix(0.7314 -0.682 0.682 0.7314 -194.0477 429.3812)" gradientUnits="userSpaceOnUse" id="XMLID_2_" x1="411.1791" x2="475.2799" y1="465.0302" y2="465.0302"><stop offset="0" style="stop-color:#7DABDC"/><stop offset="1" style="stop-color:#BFEDFF"/></linearGradient><path d="M478,471c0,16.57-13.43,30-30,30s-30-13.43-30-30s30-50,30-50      S478,454.43,478,471z" id="XMLID_1045_" style="fill:url(#XMLID_2_);"/><linearGradient gradientTransform="matrix(0.7314 -0.682 0.682 0.7314 -150.5737 341.7464)" gradientUnits="userSpaceOnUse" id="XMLID_3_" x1="321.6791" x2="385.7799" y1="366.0302" y2="366.0302"><stop offset="0" style="stop-color:#7DABDC"/><stop offset="1" style="stop-color:#BFEDFF"/></linearGradient><path d="M388.5,372c0,16.57-13.43,30-30,30s-30-13.43-30-30s30-50,30-50      S388.5,355.43,388.5,372z" id="XMLID_1044_" style="fill:url(#XMLID_3_);"/><linearGradient gradientTransform="matrix(0.7314 -0.682 0.682 0.7314 -232.6698 293.3333)" gradientUnits="userSpaceOnUse" id="XMLID_4_" x1="219.1791" x2="283.2799" y1="446.0302" y2="446.0302"><stop offset="0" style="stop-color:#7DABDC"/><stop offset="1" style="stop-color:#BFEDFF"/></linearGradient><path d="M286,452c0,16.57-13.43,30-30,30s-30-13.43-30-30s30-50,30-50      S286,435.43,286,452z" id="XMLID_1043_" style="fill:url(#XMLID_4_);"/><linearGradient gradientTransform="matrix(0.7314 -0.682 0.682 0.7314 -204.9642 201.6681)" gradientUnits="userSpaceOnUse" id="XMLID_5_" x1="116.6791" x2="180.7799" y1="365.0302" y2="365.0302"><stop offset="0" style="stop-color:#7DABDC"/><stop offset="1" style="stop-color:#BFEDFF"/></linearGradient><path d="M183.5,371c0,16.57-13.43,30-30,30s-30-13.43-30-30s30-50,30-50      S183.5,354.43,183.5,371z" id="XMLID_1042_" style="fill:url(#XMLID_5_);"/><linearGradient gradientTransform="matrix(0.7314 -0.682 0.682 0.7314 -295.3274 172.2678)" gradientUnits="userSpaceOnUse" id="XMLID_6_" x1="34.1791" x2="98.2799" y1="465.0302" y2="465.0302"><stop offset="0" style="stop-color:#7DABDC"/><stop offset="1" style="stop-color:#BFEDFF"/></linearGradient><path d="M101,471c0,16.57-13.43,30-30,30s-30-13.43-30-30s30-50,30-50      S101,454.43,101,471z" id="XMLID_1041_" style="fill:url(#XMLID_6_);"/><linearGradient gradientTransform="matrix(0.7314 -0.682 0.682 0.7314 -27.3883 212.4707)" gradientUnits="userSpaceOnUse" id="XMLID_7_" x1="21.2253" x2="422.5749" y1="167.6613" y2="167.6613"><stop offset="0" style="stop-color:#B3C9DD"/><stop offset="1" style="stop-color:#F5FFFF"/></linearGradient><path d="M477.57,134.43C492.04,148.91,501,168.91,501,191      c0,44.18-35.82,80-80,80H91c-22.09,0-42.09-8.96-56.57-23.43C19.96,233.09,11,213.09,11,191c0-37.37,25.63-68.75,60.26-77.54      C75.14,56.23,122.78,11,181,11c36.19,0,68.29,17.48,88.34,44.45C285.45,40.29,307.14,31,331,31c46.32,0,84.47,35,89.44,80H421      C443.09,111,463.09,119.96,477.57,134.43z" id="XMLID_1040_" style="fill:url(#XMLID_7_);"/></g><g id="XMLID_1000_"><g id="XMLID_1038_"><path d="M421,281H91c-24.03,0-46.631-9.36-63.639-26.357C10.36,237.631,1,215.03,1,191       c0-38.831,24.733-72.91,60.961-85.208c3.497-27.621,16.457-53.086,36.948-72.315C121.227,12.534,150.38,1,181,1       c34.224,0,67.012,14.878,89.657,40.256C287.964,28.128,309.026,21,331,21c48.144,0,88.879,33.984,98.064,80.354       c20.988,1.853,40.483,10.922,55.574,26.002C501.64,144.37,511,166.97,511,191C511,240.626,470.626,281,421,281z M181,21       c-52.401,0-96.222,40.911-99.763,93.136c-0.292,4.315-3.325,7.953-7.517,9.016C42.679,131.032,21,158.932,21,191       c0,18.69,7.282,36.27,20.504,49.501C54.73,253.718,72.31,261,91,261h330c38.599,0,70-31.402,70-70       c0-18.69-7.281-36.27-20.503-49.501C457.271,128.282,439.69,121,421,121h-0.56c-5.098,0-9.38-3.835-9.939-8.902       C406.023,71.565,371.846,41,331,41c-20.45,0-39.914,7.718-54.807,21.733c-2.079,1.956-4.896,2.932-7.735,2.678       c-2.842-0.251-5.441-1.705-7.144-3.995C242.22,35.731,212.947,21,181,21z" id="XMLID_333_"/></g><g id="XMLID_1037_"><path d="M256,492c-22.056,0-40-17.944-40-40c0-19.416,27.121-50.621,32.558-56.679       C250.454,393.207,253.16,392,256,392s5.546,1.207,7.442,3.321C268.879,401.379,296,432.584,296,452       C296,474.056,278.056,492,256,492z M256,417.483c-10.601,13.255-20,28.142-20,34.517c0,11.028,8.972,20,20,20       c11.028,0,20-8.972,20-20C276,445.625,266.603,430.739,256,417.483z" id="XMLID_330_"/></g><g id="XMLID_1036_"><path d="M153.5,411c-22.056,0-40-17.944-40-40c0-19.416,27.121-50.621,32.558-56.679       c1.896-2.114,4.603-3.321,7.442-3.321s5.546,1.207,7.442,3.321c5.437,6.058,32.558,37.263,32.558,56.679       C193.5,393.056,175.556,411,153.5,411z M153.5,336.483c-10.601,13.255-20,28.142-20,34.517c0,11.028,8.972,20,20,20       s20-8.972,20-20C173.5,364.625,164.102,349.739,153.5,336.483z" id="XMLID_327_"/></g><g id="XMLID_1020_"><path d="M358.5,412c-22.056,0-40-17.944-40-40c0-19.416,27.121-50.621,32.558-56.679       c1.896-2.114,4.603-3.321,7.442-3.321s5.546,1.207,7.442,3.321c5.437,6.058,32.558,37.263,32.558,56.679       C398.5,394.056,380.556,412,358.5,412z M358.5,337.483c-10.602,13.255-20,28.142-20,34.517c0,11.028,8.972,20,20,20       s20-8.972,20-20C378.5,365.625,369.103,350.739,358.5,337.483z" id="XMLID_324_"/></g><g id="XMLID_1017_"><path d="M71,511c-22.056,0-40-17.944-40-40c0-19.416,27.121-50.621,32.558-56.679       C65.454,412.207,68.16,411,71,411s5.546,1.207,7.442,3.321C83.879,420.379,111,451.584,111,471C111,493.056,93.056,511,71,511z        M71,436.483C60.399,449.738,51,464.625,51,471c0,11.028,8.972,20,20,20s20-8.972,20-20C91,464.625,81.602,449.739,71,436.483z       " id="XMLID_321_"/></g><g id="XMLID_1016_"><path d="M448,511c-22.056,0-40-17.944-40-40c0-19.416,27.121-50.621,32.558-56.679       C442.454,412.207,445.16,411,448,411s5.546,1.207,7.442,3.321C460.879,420.379,488,451.584,488,471       C488,493.056,470.056,511,448,511z M448,436.483c-10.602,13.255-20,28.142-20,34.517c0,11.028,8.972,20,20,20s20-8.972,20-20       C468,464.625,458.603,449.739,448,436.483z" id="XMLID_318_"/></g></g></g></g></g><g id="Layer_1"/></svg>